<mxfile host="65bd71144e">
    <diagram id="YjncfdWZtRy6m-v9Tnrz" name="Page-1">
        <mxGraphModel dx="1155" dy="649" grid="1" gridSize="10" guides="1" tooltips="1" connect="1" arrows="1" fold="1" page="1" pageScale="1" pageWidth="1169" pageHeight="827" math="0" shadow="0">
            <root>
                <mxCell id="0"/>
                <mxCell id="1" parent="0"/>
                <UserObject label="&lt;table xmlns=&quot;http://www.w3.org/1999/xhtml&quot; cellspacing=&quot;0&quot; cellpadding=&quot;0&quot; dir=&quot;ltr&quot; border=&quot;1&quot; style=&quot;table-layout:fixed;font-size:10pt;font-family:Arial;width:0px;border-collapse:collapse;border:none&quot; data-sheets-root=&quot;1&quot; data-sheets-baot=&quot;1&quot;&gt;&lt;colgroup&gt;&lt;col width=&quot;100&quot;&gt;&lt;col width=&quot;178&quot;&gt;&lt;col width=&quot;178&quot;&gt;&lt;col width=&quot;100&quot;&gt;&lt;/colgroup&gt;&lt;tbody&gt;&lt;tr style=&quot;height:24px;&quot;&gt;&lt;td style=&quot;border-top:1px solid #000000;border-right:1px solid #000000;border-bottom:1px solid #000000;border-left:1px solid #000000;overflow:hidden;padding:2px 3px 2px 3px;vertical-align:middle;background-color:#90ecb6;font-size:11pt;text-align:center;&quot; rowspan=&quot;1&quot; colspan=&quot;4&quot;&gt;上昇トレンド&lt;/td&gt;&lt;/tr&gt;&lt;tr style=&quot;height:24px;&quot;&gt;&lt;td style=&quot;border-right:1px solid #000000;border-bottom:1px solid #000000;border-left:1px solid #000000;overflow:hidden;padding:2px 3px 2px 3px;vertical-align:middle;font-size:11pt;text-align:center;&quot;&gt;減&lt;/td&gt;&lt;td style=&quot;border-right:1px solid #000000;border-bottom:1px solid #000000;overflow:hidden;padding:2px 3px 2px 3px;vertical-align:middle;font-size:11pt;text-align:center;&quot;&gt;含み益増加待ち&lt;/td&gt;&lt;td style=&quot;border-right:1px solid #000000;border-bottom:1px solid #000000;overflow:hidden;padding:2px 3px 2px 3px;vertical-align:middle;background-color:#ffff8f;font-size:11pt;text-align:center;&quot;&gt;含み損確定（売り圧力）&lt;/td&gt;&lt;td style=&quot;border-right:1px solid #000000;border-bottom:1px solid #000000;overflow:hidden;padding:2px 3px 2px 3px;vertical-align:middle;font-size:11pt;text-align:center;&quot;&gt;減&lt;/td&gt;&lt;/tr&gt;&lt;tr style=&quot;height:48px;&quot;&gt;&lt;td style=&quot;border-right:1px solid #000000;border-bottom:1px solid #000000;border-left:1px solid #000000;overflow:hidden;padding:2px 3px 2px 3px;vertical-align:middle;font-size:11pt;text-align:center;&quot;&gt;増&lt;/td&gt;&lt;td style=&quot;border-right:1px solid #000000;border-bottom:1px solid #000000;overflow:hidden;padding:2px 3px 2px 3px;vertical-align:middle;background-color:#ffff8f;font-size:11pt;text-align:center;&quot;&gt;含み益確定（買い圧力）&lt;/td&gt;&lt;td style=&quot;border-right:1px solid #000000;border-bottom:1px solid #000000;overflow:hidden;padding:2px 3px 2px 3px;vertical-align:middle;font-size:11pt;text-align:center;&quot;&gt;含み損減少待ち&lt;/td&gt;&lt;td style=&quot;border-right:1px solid #000000;border-bottom:1px solid #000000;overflow:hidden;padding:2px 3px 2px 3px;vertical-align:middle;font-size:11pt;text-align:center;&quot;&gt;増&lt;/td&gt;&lt;/tr&gt;&lt;tr style=&quot;height:24px;&quot;&gt;&lt;td style=&quot;border-right:1px solid #000000;border-bottom:1px solid #000000;border-left:1px solid #000000;overflow:hidden;padding:2px 3px 2px 3px;vertical-align:middle;background-color:#666666;font-size:11pt;color:#ffffff;text-align:center;&quot; rowspan=&quot;1&quot; colspan=&quot;4&quot;&gt;現在値&lt;/td&gt;&lt;/tr&gt;&lt;tr style=&quot;height:24px;&quot;&gt;&lt;td style=&quot;border-right:1px solid #000000;border-bottom:1px solid #000000;border-left:1px solid #000000;overflow:hidden;padding:2px 3px 2px 3px;vertical-align:middle;font-size:11pt;text-align:center;&quot;&gt;減&lt;/td&gt;&lt;td style=&quot;border-right:1px solid #000000;border-bottom:1px solid #000000;overflow:hidden;padding:2px 3px 2px 3px;vertical-align:middle;font-size:11pt;text-align:center;&quot;&gt;含み損減少待ち&lt;/td&gt;&lt;td style=&quot;border-right:1px solid #000000;border-bottom:1px solid #000000;overflow:hidden;padding:2px 3px 2px 3px;vertical-align:middle;background-color:#ffff8f;font-size:11pt;text-align:center;&quot;&gt;含み益確定（売り圧力）&lt;/td&gt;&lt;td style=&quot;border-right:1px solid #000000;border-bottom:1px solid #000000;overflow:hidden;padding:2px 3px 2px 3px;vertical-align:middle;font-size:11pt;text-align:center;&quot;&gt;減&lt;/td&gt;&lt;/tr&gt;&lt;tr style=&quot;height:48px;&quot;&gt;&lt;td style=&quot;border-right:1px solid #000000;border-bottom:1px solid #000000;border-left:1px solid #000000;overflow:hidden;padding:2px 3px 2px 3px;vertical-align:middle;font-size:11pt;text-align:center;&quot;&gt;増&lt;/td&gt;&lt;td style=&quot;border-right:1px solid #000000;border-bottom:1px solid #000000;overflow:hidden;padding:2px 3px 2px 3px;vertical-align:middle;background-color:#ffff8f;font-size:11pt;text-align:center;&quot;&gt;含み損確定（買い圧力）&lt;/td&gt;&lt;td style=&quot;border-right:1px solid #000000;border-bottom:1px solid #000000;overflow:hidden;padding:2px 3px 2px 3px;vertical-align:middle;font-size:11pt;text-align:center;&quot;&gt;含み益増加待ち&lt;/td&gt;&lt;td style=&quot;border-right:1px solid #000000;border-bottom:1px solid #000000;overflow:hidden;padding:2px 3px 2px 3px;vertical-align:middle;font-size:11pt;text-align:center;&quot;&gt;増&lt;/td&gt;&lt;/tr&gt;&lt;tr style=&quot;height:24px;&quot;&gt;&lt;td style=&quot;border-bottom:1px solid #000000;overflow:hidden;padding:2px 3px 2px 3px;vertical-align:middle;&quot;&gt;&lt;/td&gt;&lt;td style=&quot;border-bottom:1px solid #000000;overflow:hidden;padding:2px 3px 2px 3px;vertical-align:middle;&quot;&gt;&lt;/td&gt;&lt;td style=&quot;border-bottom:1px solid #000000;overflow:hidden;padding:2px 3px 2px 3px;vertical-align:middle;&quot;&gt;&lt;/td&gt;&lt;td style=&quot;border-bottom:1px solid #000000;overflow:hidden;padding:2px 3px 2px 3px;vertical-align:middle;&quot;&gt;&lt;/td&gt;&lt;/tr&gt;&lt;tr style=&quot;height:24px;&quot;&gt;&lt;td style=&quot;border-right:1px solid #000000;border-bottom:1px solid #000000;border-left:1px solid #000000;overflow:hidden;padding:2px 3px 2px 3px;vertical-align:middle;background-color:#90ecb6;font-size:11pt;text-align:center;&quot; rowspan=&quot;1&quot; colspan=&quot;4&quot;&gt;下降トレンド&lt;/td&gt;&lt;/tr&gt;&lt;tr style=&quot;height:48px;&quot;&gt;&lt;td style=&quot;border-right:1px solid #000000;border-bottom:1px solid #000000;border-left:1px solid #000000;overflow:hidden;padding:2px 3px 2px 3px;vertical-align:middle;font-size:11pt;text-align:center;&quot;&gt;増&lt;/td&gt;&lt;td style=&quot;border-right:1px solid #000000;border-bottom:1px solid #000000;overflow:hidden;padding:2px 3px 2px 3px;vertical-align:middle;font-size:11pt;text-align:center;&quot;&gt;含み益増加待ち&lt;/td&gt;&lt;td style=&quot;border-right:1px solid #000000;border-bottom:1px solid #000000;overflow:hidden;padding:2px 3px 2px 3px;vertical-align:middle;background-color:#ffff8f;font-size:11pt;text-align:center;&quot;&gt;含み損確定（売り圧力）&lt;/td&gt;&lt;td style=&quot;border-right:1px solid #000000;border-bottom:1px solid #000000;overflow:hidden;padding:2px 3px 2px 3px;vertical-align:middle;font-size:11pt;text-align:center;&quot;&gt;増&lt;/td&gt;&lt;/tr&gt;&lt;tr style=&quot;height:24px;&quot;&gt;&lt;td style=&quot;border-right:1px solid #000000;border-bottom:1px solid #000000;border-left:1px solid #000000;overflow:hidden;padding:2px 3px 2px 3px;vertical-align:middle;font-size:11pt;text-align:center;&quot;&gt;減&lt;/td&gt;&lt;td style=&quot;border-right:1px solid #000000;border-bottom:1px solid #000000;overflow:hidden;padding:2px 3px 2px 3px;vertical-align:middle;background-color:#ffff8f;font-size:11pt;text-align:center;&quot;&gt;含み益確定（買い圧力）&lt;/td&gt;&lt;td style=&quot;border-right:1px solid #000000;border-bottom:1px solid #000000;overflow:hidden;padding:2px 3px 2px 3px;vertical-align:middle;font-size:11pt;text-align:center;&quot;&gt;含み損減少待ち&lt;/td&gt;&lt;td style=&quot;border-right:1px solid #000000;border-bottom:1px solid #000000;overflow:hidden;padding:2px 3px 2px 3px;vertical-align:middle;font-size:11pt;text-align:center;&quot;&gt;減&lt;/td&gt;&lt;/tr&gt;&lt;tr style=&quot;height:24px;&quot;&gt;&lt;td style=&quot;border-right:1px solid #000000;border-bottom:1px solid #000000;border-left:1px solid #000000;overflow:hidden;padding:2px 3px 2px 3px;vertical-align:middle;background-color:#666666;font-size:11pt;color:#ffffff;text-align:center;&quot; rowspan=&quot;1&quot; colspan=&quot;4&quot;&gt;現在値&lt;/td&gt;&lt;/tr&gt;&lt;tr style=&quot;height:48px;&quot;&gt;&lt;td style=&quot;border-right:1px solid #000000;border-bottom:1px solid #000000;border-left:1px solid #000000;overflow:hidden;padding:2px 3px 2px 3px;vertical-align:middle;font-size:11pt;text-align:center;&quot;&gt;増&lt;/td&gt;&lt;td style=&quot;border-right:1px solid #000000;border-bottom:1px solid #000000;overflow:hidden;padding:2px 3px 2px 3px;vertical-align:middle;font-size:11pt;text-align:center;&quot;&gt;含み損減少待ち&lt;/td&gt;&lt;td style=&quot;border-right:1px solid #000000;border-bottom:1px solid #000000;overflow:hidden;padding:2px 3px 2px 3px;vertical-align:middle;background-color:#ffff8f;font-size:11pt;text-align:center;&quot;&gt;含み益確定（売り圧力）&lt;/td&gt;&lt;td style=&quot;border-right:1px solid #000000;border-bottom:1px solid #000000;overflow:hidden;padding:2px 3px 2px 3px;vertical-align:middle;font-size:11pt;text-align:center;&quot;&gt;増&lt;/td&gt;&lt;/tr&gt;&lt;tr style=&quot;height:24px;&quot;&gt;&lt;td style=&quot;border-right:1px solid #000000;border-bottom:1px solid #000000;border-left:1px solid #000000;overflow:hidden;padding:2px 3px 2px 3px;vertical-align:middle;font-size:11pt;text-align:center;&quot;&gt;減&lt;/td&gt;&lt;td style=&quot;border-right:1px solid #000000;border-bottom:1px solid #000000;overflow:hidden;padding:2px 3px 2px 3px;vertical-align:middle;background-color:#ffff8f;font-size:11pt;text-align:center;&quot;&gt;含み損確定（買い圧力）&lt;/td&gt;&lt;td style=&quot;border-right:1px solid #000000;border-bottom:1px solid #000000;overflow:hidden;padding:2px 3px 2px 3px;vertical-align:middle;font-size:11pt;text-align:center;&quot;&gt;含み益増加待ち&lt;/td&gt;&lt;td style=&quot;border-right:1px solid #000000;border-bottom:1px solid #000000;overflow:hidden;padding:2px 3px 2px 3px;vertical-align:middle;font-size:11pt;text-align:center;&quot;&gt;減&lt;/td&gt;&lt;/tr&gt;&lt;/tbody&gt;&lt;/table&gt;" link="&lt;table xmlns=&quot;http://www.w3.org/1999/xhtml&quot; cellspacing=&quot;0&quot; cellpadding=&quot;0&quot; dir=&quot;ltr&quot; border=&quot;1&quot; style=&quot;table-layout:fixed;font-size:10pt;font-family:Arial;width:0px;border-collapse:collapse;border:none&quot; data-sheets-root=&quot;1&quot; data-sheets-baot=&quot;1&quot;&gt;&lt;colgroup&gt;&lt;col width=&quot;100&quot;&gt;&lt;col width=&quot;178&quot;&gt;&lt;col width=&quot;178&quot;&gt;&lt;col width=&quot;100&quot;&gt;&lt;/colgroup&gt;&lt;tbody&gt;&lt;tr style=&quot;height:24px;&quot;&gt;&lt;td style=&quot;border-top:1px solid #000000;border-right:1px solid #000000;border-bottom:1px solid #000000;border-left:1px solid #000000;overflow:hidden;padding:2px 3px 2px 3px;vertical-align:middle;background-color:#90ecb6;font-size:11pt;text-align:center;&quot; rowspan=&quot;1&quot; colspan=&quot;4&quot;&gt;上昇トレンド&lt;/td&gt;&lt;/tr&gt;&lt;tr style=&quot;height:24px;&quot;&gt;&lt;td style=&quot;border-right:1px solid #000000;border-bottom:1px solid #000000;border-left:1px solid #000000;overflow:hidden;padding:2px 3px 2px 3px;vertical-align:middle;font-size:11pt;text-align:center;&quot;&gt;減&lt;/td&gt;&lt;td style=&quot;border-right:1px solid #000000;border-bottom:1px solid #000000;overflow:hidden;padding:2px 3px 2px 3px;vertical-align:middle;font-size:11pt;text-align:center;&quot;&gt;含み益増加待ち&lt;/td&gt;&lt;td style=&quot;border-right:1px solid #000000;border-bottom:1px solid #000000;overflow:hidden;padding:2px 3px 2px 3px;vertical-align:middle;background-color:#ffff8f;font-size:11pt;text-align:center;&quot;&gt;含み損確定（売り圧力）&lt;/td&gt;&lt;td style=&quot;border-right:1px solid #000000;border-bottom:1px solid #000000;overflow:hidden;padding:2px 3px 2px 3px;vertical-align:middle;font-size:11pt;text-align:center;&quot;&gt;減&lt;/td&gt;&lt;/tr&gt;&lt;tr style=&quot;height:48px;&quot;&gt;&lt;td style=&quot;border-right:1px solid #000000;border-bottom:1px solid #000000;border-left:1px solid #000000;overflow:hidden;padding:2px 3px 2px 3px;vertical-align:middle;font-size:11pt;text-align:center;&quot;&gt;増&lt;/td&gt;&lt;td style=&quot;border-right:1px solid #000000;border-bottom:1px solid #000000;overflow:hidden;padding:2px 3px 2px 3px;vertical-align:middle;background-color:#ffff8f;font-size:11pt;text-align:center;&quot;&gt;含み益確定（買い圧力）&lt;/td&gt;&lt;td style=&quot;border-right:1px solid #000000;border-bottom:1px solid #000000;overflow:hidden;padding:2px 3px 2px 3px;vertical-align:middle;font-size:11pt;text-align:center;&quot;&gt;含み損減少待ち&lt;/td&gt;&lt;td style=&quot;border-right:1px solid #000000;border-bottom:1px solid #000000;overflow:hidden;padding:2px 3px 2px 3px;vertical-align:middle;font-size:11pt;text-align:center;&quot;&gt;増&lt;/td&gt;&lt;/tr&gt;&lt;tr style=&quot;height:24px;&quot;&gt;&lt;td style=&quot;border-right:1px solid #000000;border-bottom:1px solid #000000;border-left:1px solid #000000;overflow:hidden;padding:2px 3px 2px 3px;vertical-align:middle;background-color:#666666;font-size:11pt;color:#ffffff;text-align:center;&quot; rowspan=&quot;1&quot; colspan=&quot;4&quot;&gt;現在値&lt;/td&gt;&lt;/tr&gt;&lt;tr style=&quot;height:24px;&quot;&gt;&lt;td style=&quot;border-right:1px solid #000000;border-bottom:1px solid #000000;border-left:1px solid #000000;overflow:hidden;padding:2px 3px 2px 3px;vertical-align:middle;font-size:11pt;text-align:center;&quot;&gt;減&lt;/td&gt;&lt;td style=&quot;border-right:1px solid #000000;border-bottom:1px solid #000000;overflow:hidden;padding:2px 3px 2px 3px;vertical-align:middle;font-size:11pt;text-align:center;&quot;&gt;含み損減少待ち&lt;/td&gt;&lt;td style=&quot;border-right:1px solid #000000;border-bottom:1px solid #000000;overflow:hidden;padding:2px 3px 2px 3px;vertical-align:middle;background-color:#ffff8f;font-size:11pt;text-align:center;&quot;&gt;含み益確定（売り圧力）&lt;/td&gt;&lt;td style=&quot;border-right:1px solid #000000;border-bottom:1px solid #000000;overflow:hidden;padding:2px 3px 2px 3px;vertical-align:middle;font-size:11pt;text-align:center;&quot;&gt;減&lt;/td&gt;&lt;/tr&gt;&lt;tr style=&quot;height:48px;&quot;&gt;&lt;td style=&quot;border-right:1px solid #000000;border-bottom:1px solid #000000;border-left:1px solid #000000;overflow:hidden;padding:2px 3px 2px 3px;vertical-align:middle;font-size:11pt;text-align:center;&quot;&gt;増&lt;/td&gt;&lt;td style=&quot;border-right:1px solid #000000;border-bottom:1px solid #000000;overflow:hidden;padding:2px 3px 2px 3px;vertical-align:middle;background-color:#ffff8f;font-size:11pt;text-align:center;&quot;&gt;含み損確定（買い圧力）&lt;/td&gt;&lt;td style=&quot;border-right:1px solid #000000;border-bottom:1px solid #000000;overflow:hidden;padding:2px 3px 2px 3px;vertical-align:middle;font-size:11pt;text-align:center;&quot;&gt;含み益増加待ち&lt;/td&gt;&lt;td style=&quot;border-right:1px solid #000000;border-bottom:1px solid #000000;overflow:hidden;padding:2px 3px 2px 3px;vertical-align:middle;font-size:11pt;text-align:center;&quot;&gt;増&lt;/td&gt;&lt;/tr&gt;&lt;tr style=&quot;height:24px;&quot;&gt;&lt;td style=&quot;border-bottom:1px solid #000000;overflow:hidden;padding:2px 3px 2px 3px;vertical-align:middle;&quot;&gt;&lt;/td&gt;&lt;td style=&quot;border-bottom:1px solid #000000;overflow:hidden;padding:2px 3px 2px 3px;vertical-align:middle;&quot;&gt;&lt;/td&gt;&lt;td style=&quot;border-bottom:1px solid #000000;overflow:hidden;padding:2px 3px 2px 3px;vertical-align:middle;&quot;&gt;&lt;/td&gt;&lt;td style=&quot;border-bottom:1px solid #000000;overflow:hidden;padding:2px 3px 2px 3px;vertical-align:middle;&quot;&gt;&lt;/td&gt;&lt;/tr&gt;&lt;tr style=&quot;height:24px;&quot;&gt;&lt;td style=&quot;border-right:1px solid #000000;border-bottom:1px solid #000000;border-left:1px solid #000000;overflow:hidden;padding:2px 3px 2px 3px;vertical-align:middle;background-color:#90ecb6;font-size:11pt;text-align:center;&quot; rowspan=&quot;1&quot; colspan=&quot;4&quot;&gt;下降トレンド&lt;/td&gt;&lt;/tr&gt;&lt;tr style=&quot;height:48px;&quot;&gt;&lt;td style=&quot;border-right:1px solid #000000;border-bottom:1px solid #000000;border-left:1px solid #000000;overflow:hidden;padding:2px 3px 2px 3px;vertical-align:middle;font-size:11pt;text-align:center;&quot;&gt;増&lt;/td&gt;&lt;td style=&quot;border-right:1px solid #000000;border-bottom:1px solid #000000;overflow:hidden;padding:2px 3px 2px 3px;vertical-align:middle;font-size:11pt;text-align:center;&quot;&gt;含み益増加待ち&lt;/td&gt;&lt;td style=&quot;border-right:1px solid #000000;border-bottom:1px solid #000000;overflow:hidden;padding:2px 3px 2px 3px;vertical-align:middle;background-color:#ffff8f;font-size:11pt;text-align:center;&quot;&gt;含み損確定（売り圧力）&lt;/td&gt;&lt;td style=&quot;border-right:1px solid #000000;border-bottom:1px solid #000000;overflow:hidden;padding:2px 3px 2px 3px;vertical-align:middle;font-size:11pt;text-align:center;&quot;&gt;増&lt;/td&gt;&lt;/tr&gt;&lt;tr style=&quot;height:24px;&quot;&gt;&lt;td style=&quot;border-right:1px solid #000000;border-bottom:1px solid #000000;border-left:1px solid #000000;overflow:hidden;padding:2px 3px 2px 3px;vertical-align:middle;font-size:11pt;text-align:center;&quot;&gt;減&lt;/td&gt;&lt;td style=&quot;border-right:1px solid #000000;border-bottom:1px solid #000000;overflow:hidden;padding:2px 3px 2px 3px;vertical-align:middle;background-color:#ffff8f;font-size:11pt;text-align:center;&quot;&gt;含み益確定（買い圧力）&lt;/td&gt;&lt;td style=&quot;border-right:1px solid #000000;border-bottom:1px solid #000000;overflow:hidden;padding:2px 3px 2px 3px;vertical-align:middle;font-size:11pt;text-align:center;&quot;&gt;含み損減少待ち&lt;/td&gt;&lt;td style=&quot;border-right:1px solid #000000;border-bottom:1px solid #000000;overflow:hidden;padding:2px 3px 2px 3px;vertical-align:middle;font-size:11pt;text-align:center;&quot;&gt;減&lt;/td&gt;&lt;/tr&gt;&lt;tr style=&quot;height:24px;&quot;&gt;&lt;td style=&quot;border-right:1px solid #000000;border-bottom:1px solid #000000;border-left:1px solid #000000;overflow:hidden;padding:2px 3px 2px 3px;vertical-align:middle;background-color:#666666;font-size:11pt;color:#ffffff;text-align:center;&quot; rowspan=&quot;1&quot; colspan=&quot;4&quot;&gt;現在値&lt;/td&gt;&lt;/tr&gt;&lt;tr style=&quot;height:48px;&quot;&gt;&lt;td style=&quot;border-right:1px solid #000000;border-bottom:1px solid #000000;border-left:1px solid #000000;overflow:hidden;padding:2px 3px 2px 3px;vertical-align:middle;font-size:11pt;text-align:center;&quot;&gt;増&lt;/td&gt;&lt;td style=&quot;border-right:1px solid #000000;border-bottom:1px solid #000000;overflow:hidden;padding:2px 3px 2px 3px;vertical-align:middle;font-size:11pt;text-align:center;&quot;&gt;含み損減少待ち&lt;/td&gt;&lt;td style=&quot;border-right:1px solid #000000;border-bottom:1px solid #000000;overflow:hidden;padding:2px 3px 2px 3px;vertical-align:middle;background-color:#ffff8f;font-size:11pt;text-align:center;&quot;&gt;含み益確定（売り圧力）&lt;/td&gt;&lt;td style=&quot;border-right:1px solid #000000;border-bottom:1px solid #000000;overflow:hidden;padding:2px 3px 2px 3px;vertical-align:middle;font-size:11pt;text-align:center;&quot;&gt;増&lt;/td&gt;&lt;/tr&gt;&lt;tr style=&quot;height:24px;&quot;&gt;&lt;td style=&quot;border-right:1px solid #000000;border-bottom:1px solid #000000;border-left:1px solid #000000;overflow:hidden;padding:2px 3px 2px 3px;vertical-align:middle;font-size:11pt;text-align:center;&quot;&gt;減&lt;/td&gt;&lt;td style=&quot;border-right:1px solid #000000;border-bottom:1px solid #000000;overflow:hidden;padding:2px 3px 2px 3px;vertical-align:middle;background-color:#ffff8f;font-size:11pt;text-align:center;&quot;&gt;含み損確定（買い圧力）&lt;/td&gt;&lt;td style=&quot;border-right:1px solid #000000;border-bottom:1px solid #000000;overflow:hidden;padding:2px 3px 2px 3px;vertical-align:middle;font-size:11pt;text-align:center;&quot;&gt;含み益増加待ち&lt;/td&gt;&lt;td style=&quot;border-right:1px solid #000000;border-bottom:1px solid #000000;overflow:hidden;padding:2px 3px 2px 3px;vertical-align:middle;font-size:11pt;text-align:center;&quot;&gt;減&lt;/td&gt;&lt;/tr&gt;&lt;/tbody&gt;&lt;/table&gt;" id="2">
                    <mxCell style="text;whiteSpace=wrap;html=1;" parent="1" vertex="1">
                        <mxGeometry x="530" y="250" width="560" height="410" as="geometry"/>
                    </mxCell>
                </UserObject>
            </root>
        </mxGraphModel>
    </diagram>
</mxfile>